<svg xmlns="http://www.w3.org/2000/svg" width="2400" height="1350" viewBox="0 0 2400 1350" role="img" aria-label="Abstract lens with digital pixels breaking off">
  <defs>
    <linearGradient id="g0" x1="0" y1="0" x2="1" y2="1">
      <stop offset="0" stop-color="#05070c"/>
      <stop offset="1" stop-color="#0b1020"/>
    </linearGradient>
    <radialGradient id="goldGlow" cx="30%" cy="24%" r="70%">
      <stop offset="0" stop-color="rgba(212,175,55,.26)"/>
      <stop offset="0.55" stop-color="rgba(212,175,55,.08)"/>
      <stop offset="1" stop-color="rgba(212,175,55,0)"/>
    </radialGradient>
    <radialGradient id="blueGlow" cx="80%" cy="18%" r="70%">
      <stop offset="0" stop-color="rgba(255,210,160,.08)"/>
      <stop offset="1" stop-color="rgba(120,180,255,0)"/>
    </radialGradient>
    <filter id="blur" x="-20%" y="-20%" width="140%" height="140%">
      <feGaussianBlur stdDeviation="8"/>
    </filter>
  </defs>

  <rect width="2400" height="1350" fill="url(#g0)"/>
  <rect width="2400" height="1350" fill="url(#goldGlow)"/>
  <rect width="2400" height="1350" fill="url(#blueGlow)"/>

  <g opacity="0.8"><path d="M 650.9 1067.7 Q 825.2 983.6 1592.8 1320.0" stroke="rgba(243,210,122,0.113)" stroke-width="1.04" fill="none"/><path d="M 189.0 683.4 Q 155.3 986.3 815.4 1144.8" stroke="rgba(243,210,122,0.102)" stroke-width="1.23" fill="none"/><path d="M 2348.0 1036.9 Q 1732.7 429.9 1137.2 -64.9" stroke="rgba(243,210,122,0.062)" stroke-width="1.82" fill="none"/><path d="M 2227.9 715.7 Q 1904.5 417.4 1774.7 324.3" stroke="rgba(243,210,122,0.115)" stroke-width="2.04" fill="none"/><path d="M 942.8 618.8 Q 1105.4 1015.9 1435.0 1220.3" stroke="rgba(243,210,122,0.068)" stroke-width="1.96" fill="none"/><path d="M 2124.9 43.0 Q 913.5 684.0 95.3 898.9" stroke="rgba(243,210,122,0.099)" stroke-width="2.20" fill="none"/><path d="M 1196.3 1035.0 Q 1733.0 949.6 1646.3 1253.3" stroke="rgba(243,210,122,0.071)" stroke-width="1.61" fill="none"/><path d="M 2537.8 1389.1 Q 2759.3 606.4 2524.4 -57.5" stroke="rgba(243,210,122,0.063)" stroke-width="1.82" fill="none"/><path d="M 681.0 85.3 Q 1192.7 836.1 1494.1 1230.9" stroke="rgba(243,210,122,0.085)" stroke-width="1.59" fill="none"/><path d="M 480.6 1249.5 Q 1023.6 1268.1 1823.9 1417.0" stroke="rgba(243,210,122,0.060)" stroke-width="1.78" fill="none"/><path d="M -158.5 432.7 Q 744.4 676.2 1773.0 865.2" stroke="rgba(243,210,122,0.066)" stroke-width="2.06" fill="none"/><path d="M 597.3 1184.3 Q -44.3 1119.3 43.0 1074.7" stroke="rgba(243,210,122,0.130)" stroke-width="1.61" fill="none"/><path d="M 1016.3 803.7 Q 454.5 906.8 -60.4 1313.5" stroke="rgba(243,210,122,0.131)" stroke-width="1.26" fill="none"/><path d="M 389.9 379.0 Q 1122.0 583.2 1523.7 573.8" stroke="rgba(243,210,122,0.077)" stroke-width="1.09" fill="none"/></g>
  <g><circle cx="1169.0" cy="247.4" r="2.8" fill="rgba(212,175,55,0.094)"/><circle cx="959.0" cy="1008.3" r="3.1" fill="rgba(212,175,55,0.135)"/><circle cx="723.9" cy="44.3" r="4.5" fill="rgba(212,175,55,0.139)"/><circle cx="845.2" cy="1155.1" r="4.2" fill="rgba(212,175,55,0.057)"/><circle cx="1959.7" cy="859.4" r="5.1" fill="rgba(212,175,55,0.099)"/><circle cx="208.5" cy="395.2" r="2.4" fill="rgba(212,175,55,0.122)"/><circle cx="2138.8" cy="968.4" r="4.2" fill="rgba(212,175,55,0.091)"/><circle cx="1502.1" cy="618.6" r="4.4" fill="rgba(212,175,55,0.056)"/><circle cx="2041.5" cy="9.6" r="4.1" fill="rgba(212,175,55,0.071)"/><circle cx="1498.3" cy="540.4" r="5.0" fill="rgba(212,175,55,0.093)"/><circle cx="878.5" cy="1101.6" r="5.3" fill="rgba(212,175,55,0.058)"/><circle cx="2070.1" cy="745.2" r="5.7" fill="rgba(212,175,55,0.129)"/><circle cx="1389.2" cy="430.9" r="2.6" fill="rgba(212,175,55,0.059)"/><circle cx="1699.0" cy="1156.0" r="2.9" fill="rgba(212,175,55,0.107)"/><circle cx="2306.6" cy="1313.5" r="5.8" fill="rgba(212,175,55,0.115)"/><circle cx="2339.4" cy="97.5" r="4.0" fill="rgba(212,175,55,0.072)"/><circle cx="1371.9" cy="1289.8" r="5.4" fill="rgba(212,175,55,0.055)"/><circle cx="907.9" cy="199.1" r="5.1" fill="rgba(212,175,55,0.085)"/><circle cx="1005.6" cy="1050.4" r="2.9" fill="rgba(212,175,55,0.066)"/><circle cx="1954.4" cy="162.5" r="3.7" fill="rgba(212,175,55,0.128)"/><circle cx="1493.0" cy="1316.5" r="3.8" fill="rgba(212,175,55,0.086)"/><circle cx="1052.2" cy="3.8" r="6.0" fill="rgba(212,175,55,0.075)"/><circle cx="979.0" cy="479.7" r="3.4" fill="rgba(212,175,55,0.138)"/><circle cx="960.4" cy="636.0" r="3.6" fill="rgba(212,175,55,0.091)"/><circle cx="1255.7" cy="438.8" r="4.2" fill="rgba(212,175,55,0.066)"/><circle cx="2044.2" cy="264.7" r="4.0" fill="rgba(212,175,55,0.105)"/><circle cx="1707.9" cy="953.8" r="2.4" fill="rgba(212,175,55,0.134)"/><circle cx="1485.7" cy="449.1" r="3.2" fill="rgba(212,175,55,0.121)"/><circle cx="2194.8" cy="876.1" r="3.2" fill="rgba(212,175,55,0.094)"/><circle cx="1488.2" cy="114.3" r="4.9" fill="rgba(212,175,55,0.050)"/><circle cx="1007.3" cy="478.0" r="5.3" fill="rgba(212,175,55,0.080)"/><circle cx="1260.1" cy="738.7" r="5.8" fill="rgba(212,175,55,0.092)"/><circle cx="2124.6" cy="895.2" r="5.5" fill="rgba(212,175,55,0.108)"/><circle cx="1039.1" cy="214.3" r="5.9" fill="rgba(212,175,55,0.094)"/><circle cx="1709.4" cy="943.5" r="3.5" fill="rgba(212,175,55,0.130)"/><circle cx="914.4" cy="574.5" r="2.7" fill="rgba(212,175,55,0.119)"/><circle cx="460.2" cy="218.0" r="2.5" fill="rgba(212,175,55,0.055)"/><circle cx="1069.8" cy="995.0" r="4.4" fill="rgba(212,175,55,0.074)"/></g>

  <g filter="url(#blur)" opacity="0.9">
    <circle cx="1752.0" cy="621.0" r="210" fill="rgba(255,255,255,.04)"/>
  </g>

  <g><circle cx="1752.0" cy="621.0" r="160" fill="none" stroke="rgba(212,175,55,0.180)" stroke-width="1.2"/><circle cx="1752.0" cy="621.0" r="215" fill="none" stroke="rgba(212,175,55,0.150)" stroke-width="1.2"/><circle cx="1752.0" cy="621.0" r="270" fill="none" stroke="rgba(212,175,55,0.120)" stroke-width="1.2"/><circle cx="1752.0" cy="621.0" r="325" fill="none" stroke="rgba(212,175,55,0.090)" stroke-width="1.2"/></g>

  <g>
    <rect x="1562.0" y="555.0" width="380" height="132" rx="26" fill="rgba(255,255,255,.05)" stroke="rgba(255,255,255,.10)"/>
    <text x="1752.0" y="613.0" text-anchor="middle" font-family="ui-sans-serif,system-ui" font-size="50" fill="rgba(245,247,255,.92)" letter-spacing="2">W3</text>
    <text x="1752.0" y="655.0" text-anchor="middle" font-family="ui-sans-serif,system-ui" font-size="22" fill="rgba(245,247,255,.60)" letter-spacing="1">w3.photos</text>
  </g>

  <g opacity="0.9">
    <circle cx="432.0" cy="1053.0" r="280" fill="rgba(212,175,55,.06)"/>
    <circle cx="432.0" cy="1053.0" r="279" fill="none" stroke="rgba(255,255,255,.06)"/>
  </g>
</svg>